<svg xmlns="http://www.w3.org/2000/svg" xmlns:xlink="http://www.w3.org/1999/xlink" width="4017" zoomAndPan="magnify" viewBox="0 0 3012.75 3206.999866" height="4276" preserveAspectRatio="xMidYMid meet" version="1.0"><path fill="#3394f3" d="M 737.535156 2911.269531 L 280.15625 2911.269531 C 191.65625 2911.269531 109.851562 2863.917969 65.46875 2787.320312 C 21.351562 2710.722656 21.351562 2616.015625 65.46875 2539.417969 C 382.78125 1990.066406 973.296875 967.476562 1290.613281 418.136719 C 1334.730469 341.527344 1416.789062 294.425781 1505.289062 294.425781 C 1593.789062 294.425781 1675.59375 341.527344 1719.976562 418.136719 C 2037.039062 967.476562 2627.539062 1990.066406 2944.855469 2539.417969 C 2989.238281 2616.015625 2989.238281 2710.722656 2944.855469 2787.320312 C 2900.738281 2863.917969 2818.679688 2911.269531 2730.179688 2911.269531 L 2272.800781 2911.269531 L 2219.007812 2716.175781 C 2213.304688 2696.089844 2202.894531 2677.75 2188.261719 2662.625 C 2152.808594 2626.4375 2085.140625 2556.773438 2056.632812 2527.769531 C 2048.195312 2519.09375 2041.996094 2508.429688 2038.53125 2496.78125 C 2008.785156 2395.144531 1859.042969 1886.453125 1828.800781 1784.070312 C 1825.574219 1772.660156 1827.816406 1760.265625 1835 1751.09375 C 1858.550781 1719.855469 1912.59375 1648.710938 1939.117188 1613.761719 C 1949.035156 1600.863281 1954.246094 1585 1954.246094 1568.886719 C 1954.246094 1523.773438 1954.246094 1426.839844 1954.246094 1358.664062 C 1954.246094 1317.761719 1921.019531 1284.296875 1879.875 1284.296875 L 1811.207031 1284.296875 C 1801.53125 1284.296875 1791.867188 1288.265625 1784.925781 1295.210938 C 1777.980469 1302.140625 1774.023438 1311.816406 1774.023438 1321.480469 L 1774.023438 1394.613281 C 1774.023438 1404.285156 1770.050781 1413.949219 1763.105469 1420.894531 C 1756.164062 1427.835938 1746.753906 1431.796875 1736.835938 1431.796875 C 1706.582031 1431.796875 1664.199219 1431.796875 1633.957031 1431.796875 C 1624.28125 1431.796875 1614.617188 1427.835938 1607.675781 1420.894531 C 1600.730469 1413.949219 1596.773438 1404.285156 1596.773438 1394.613281 C 1596.773438 1372.300781 1596.773438 1343.792969 1596.773438 1321.480469 C 1596.773438 1311.816406 1593.054688 1302.140625 1585.855469 1295.210938 C 1578.914062 1288.265625 1569.503906 1284.296875 1559.585938 1284.296875 C 1528.597656 1284.296875 1484.214844 1284.296875 1452.988281 1284.296875 C 1443.074219 1284.296875 1433.648438 1288.265625 1426.707031 1295.210938 C 1419.761719 1302.140625 1415.804688 1311.816406 1415.804688 1321.480469 C 1415.804688 1343.792969 1415.804688 1372.300781 1415.804688 1394.613281 C 1415.804688 1404.285156 1411.832031 1413.949219 1404.886719 1420.894531 C 1397.945312 1427.835938 1388.535156 1431.796875 1378.617188 1431.796875 C 1350.109375 1431.796875 1311.179688 1431.796875 1282.667969 1431.796875 C 1272.753906 1431.796875 1263.34375 1427.835938 1256.398438 1420.894531 C 1249.457031 1413.949219 1245.484375 1404.285156 1245.484375 1394.613281 C 1245.484375 1372.300781 1245.484375 1343.792969 1245.484375 1321.480469 C 1245.484375 1311.816406 1241.523438 1302.140625 1234.582031 1295.210938 C 1227.636719 1288.265625 1218.214844 1284.296875 1208.296875 1284.296875 C 1180.296875 1284.296875 1141.125 1284.296875 1106.910156 1284.296875 C 1087.078125 1284.296875 1068.234375 1292.226562 1054.359375 1306.113281 C 1040.230469 1320.242188 1032.539062 1339.085938 1032.539062 1358.664062 C 1032.539062 1424.851562 1032.539062 1518.070312 1032.539062 1564.675781 C 1032.539062 1583.507812 1039.484375 1601.609375 1052.371094 1615.242188 C 1084.851562 1650.441406 1148.5625 1719.363281 1177.3125 1750.347656 C 1186.242188 1760.023438 1189.464844 1773.660156 1185.492188 1786.292969 C 1153.027344 1894.625 1000.058594 2400.59375 970.816406 2498.261719 C 967.339844 2508.925781 961.886719 2518.839844 954.199219 2527.277344 C 927.433594 2556.519531 860.25 2629.410156 827.273438 2665.101562 C 814.878906 2678.496094 805.710938 2694.609375 800.257812 2711.964844 Z M 737.535156 2911.269531 " fill-opacity="1" fill-rule="evenodd"/></svg>