<?xml version="1.0" encoding="UTF-8" standalone="no"?>
<!DOCTYPE svg PUBLIC "-//W3C//DTD SVG 1.1//EN" "http://www.w3.org/Graphics/SVG/1.1/DTD/svg11.dtd">
<svg width="100%" height="100%" viewBox="0 0 4017 4276" version="1.1" xmlns="http://www.w3.org/2000/svg" xmlns:xlink="http://www.w3.org/1999/xlink" xml:space="preserve" xmlns:serif="http://www.serif.com/" style="fill-rule:evenodd;clip-rule:evenodd;stroke-linejoin:round;stroke-miterlimit:2;">
    <g transform="matrix(1,0,0,1,-31380,-21072)">
        <g transform="matrix(1.96102,0,0,2.78347,31380,21072)">
            <rect id="icon_theme-light" x="0" y="0" width="2048" height="1536" style="fill:none;"/>
            <g id="icon_theme-light1" serif:id="icon_theme-light">
                <g transform="matrix(1.25061,0,0,0.881089,-70003,-41511.7)">
                    <path d="M56484,48513.5L56299.5,48513.5C56263.8,48513.5 56230.8,48494.4 56212.9,48463.5C56195.1,48432.6 56195.1,48394.4 56212.9,48363.5C56340.9,48141.9 56579.1,47729.4 56707.1,47507.8C56724.9,47476.9 56758,47457.9 56793.7,47457.9C56829.4,47457.9 56862.4,47476.9 56880.3,47507.8C57008.2,47729.4 57246.4,48141.9 57374.4,48363.5C57392.3,48394.4 57392.3,48432.6 57374.4,48463.5C57356.6,48494.4 57323.5,48513.5 57287.8,48513.5L57103.3,48513.5L57081.6,48434.8C57079.3,48426.7 57075.1,48419.3 57069.2,48413.2C57054.9,48398.6 57027.6,48370.5 57016.1,48358.8C57012.7,48355.3 57010.2,48351 57008.8,48346.3C56996.8,48305.3 56936.4,48100.1 56924.2,48058.8C56922.9,48054.2 56923.8,48049.2 56926.7,48045.5C56936.2,48032.9 56958,48004.2 56968.7,47990.1C56972.7,47984.9 56974.8,47978.5 56974.8,47972C56974.8,47953.8 56974.8,47914.7 56974.8,47887.2C56974.8,47870.7 56961.4,47857.2 56944.8,47857.2L56917.1,47857.2C56913.2,47857.2 56909.3,47858.8 56906.5,47861.6C56903.7,47864.4 56902.1,47868.3 56902.1,47872.2L56902.1,47901.7C56902.1,47905.6 56900.5,47909.5 56897.7,47912.3C56894.9,47915.1 56891.1,47916.7 56887.1,47916.7C56874.9,47916.7 56857.8,47916.7 56845.6,47916.7C56841.7,47916.7 56837.8,47915.1 56835,47912.3C56832.2,47909.5 56830.6,47905.6 56830.6,47901.7C56830.6,47892.7 56830.6,47881.2 56830.6,47872.2C56830.6,47868.3 56829.1,47864.4 56826.2,47861.6C56823.4,47858.8 56819.6,47857.2 56815.6,47857.2C56803.1,47857.2 56785.2,47857.2 56772.6,47857.2C56768.6,47857.2 56764.8,47858.8 56762,47861.6C56759.2,47864.4 56757.6,47868.3 56757.6,47872.2C56757.6,47881.2 56757.6,47892.7 56757.6,47901.7C56757.6,47905.6 56756,47909.5 56753.2,47912.3C56750.4,47915.1 56746.6,47916.7 56742.6,47916.7C56731.1,47916.7 56715.4,47916.7 56703.9,47916.7C56699.9,47916.7 56696.1,47915.1 56693.3,47912.3C56690.5,47909.5 56688.9,47905.6 56688.9,47901.7C56688.9,47892.7 56688.9,47881.2 56688.9,47872.2C56688.9,47868.3 56687.3,47864.4 56684.5,47861.6C56681.7,47858.8 56677.9,47857.2 56673.9,47857.2C56662.6,47857.2 56646.8,47857.2 56633,47857.2C56625,47857.2 56617.4,47860.4 56611.8,47866C56606.1,47871.7 56603,47879.3 56603,47887.2C56603,47913.9 56603,47951.5 56603,47970.3C56603,47977.9 56605.8,47985.2 56611,47990.7C56624.1,48004.9 56649.8,48032.7 56661.4,48045.2C56665,48049.1 56666.3,48054.6 56664.7,48059.7C56651.6,48103.4 56589.9,48307.5 56578.1,48346.9C56576.7,48351.2 56574.5,48355.2 56571.4,48358.6C56560.6,48370.4 56533.5,48399.8 56520.2,48414.2C56515.2,48419.6 56511.5,48426.1 56509.3,48433.1L56484,48513.5Z" style="fill:rgb(49,94,227);"/>
                </g>
            </g>
        </g>
    </g>
</svg>
